<?xml version="1.0" standalone="no"?>
<!DOCTYPE svg PUBLIC "-//W3C//DTD SVG 20010904//EN"
 "http://www.w3.org/TR/2001/REC-SVG-20010904/DTD/svg10.dtd">
<svg version="1.0" xmlns="http://www.w3.org/2000/svg"
 width="55.000000pt" height="53.000000pt" viewBox="0 0 55.000000 53.000000"
 preserveAspectRatio="xMidYMid meet">
<metadata>
Created by potrace 1.16, written by Peter Selinger 2001-2019
</metadata>
<g transform="translate(0.000000,53.000000) scale(0.100000,-0.100000)"
fill="#000000" stroke="none">
<path d="M130 347 c0 -79 4 -101 23 -138 38 -72 120 -112 181 -90 l26 10 -25
37 c-25 37 -39 79 -50 146 -7 45 -48 96 -92 114 -61 26 -63 24 -63 -79z"/>
<path d="M373 340 c-45 -18 -42 -104 4 -152 15 -15 30 -28 34 -28 12 0 49 85
49 114 0 15 -10 37 -25 51 -26 27 -29 28 -62 15z"/>
</g>
</svg>
