<?xml version="1.0" standalone="no"?>
<!DOCTYPE svg PUBLIC "-//W3C//DTD SVG 20010904//EN"
 "http://www.w3.org/TR/2001/REC-SVG-20010904/DTD/svg10.dtd">
<svg version="1.0" xmlns="http://www.w3.org/2000/svg"
 width="50.000000pt" height="53.000000pt" viewBox="0 0 50.000000 53.000000"
 preserveAspectRatio="xMidYMid meet">

<g transform="translate(0.000000,53.000000) scale(0.100000,-0.100000)"
fill="#000000" stroke="none">
<path d="M189 391 c-46 -46 -34 -109 25 -138 46 -21 90 -5 113 44 15 32 15 37
0 69 -29 59 -92 71 -138 25z"/>
<path d="M195 202 c-38 -24 -52 -40 -60 -75 l-7 -27 121 0 c67 0 121 2 121 5
0 26 -44 83 -74 98 -46 22 -64 21 -101 -1z"/>
</g>
</svg>
