<?xml version="1.0" standalone="no"?>
<!DOCTYPE svg PUBLIC "-//W3C//DTD SVG 20010904//EN"
 "http://www.w3.org/TR/2001/REC-SVG-20010904/DTD/svg10.dtd">
<svg version="1.0" xmlns="http://www.w3.org/2000/svg"
 width="59.000000pt" height="55.000000pt" viewBox="0 0 59.000000 55.000000"
 preserveAspectRatio="xMidYMid meet">

<g transform="translate(0.000000,55.000000) scale(0.100000,-0.100000)"
fill="#000000" stroke="none">
<path d="M251 414 c-26 -33 -26 -45 -1 -72 25 -27 61 -28 83 -4 23 25 21 57
-5 82 -29 27 -52 25 -77 -6z"/>
<path d="M161 322 c-12 -22 11 -55 35 -50 27 5 40 33 25 52 -18 21 -48 20 -60
-2z"/>
<path d="M363 324 c-15 -39 38 -67 60 -32 8 12 7 21 -2 32 -17 21 -50 20 -58
0z"/>
<path d="M265 288 c-35 -19 -45 -41 -45 -100 l0 -58 75 0 75 0 0 56 c0 48 -4
59 -29 85 -32 31 -45 34 -76 17z"/>
<path d="M157 232 c-10 -11 -17 -36 -17 -60 0 -35 3 -42 20 -42 18 0 20 7 20
60 0 33 -2 60 -3 60 -2 0 -11 -8 -20 -18z"/>
<path d="M407 233 c-4 -3 -7 -28 -7 -55 0 -45 2 -48 25 -48 22 0 25 4 25 36 0
52 -23 88 -43 67z"/>
</g>
</svg>
